<?xml version="1.0" standalone="no"?>
<!DOCTYPE svg PUBLIC "-//W3C//DTD SVG 20010904//EN"
 "http://www.w3.org/TR/2001/REC-SVG-20010904/DTD/svg10.dtd">
<svg version="1.0" xmlns="http://www.w3.org/2000/svg"
 width="528.000000pt" height="202.000000pt" viewBox="0 0 528.000000 202.000000"
 preserveAspectRatio="xMidYMid meet">

<g transform="translate(0.000000,202.000000) scale(0.100000,-0.100000)"
fill="#ffffff" stroke="none">
<path d="M1230 1080 l0 -280 45 0 45 0 0 152 0 152 85 -139 c47 -77 89 -141
93 -143 5 -1 47 59 93 135 l84 138 3 -147 3 -148 44 0 45 0 0 280 c0 154 -2
280 -4 280 -2 0 -61 -88 -131 -195 -70 -107 -131 -195 -135 -195 -4 0 -65 88
-135 195 -70 107 -129 195 -131 195 -2 0 -4 -126 -4 -280z"/>
<path d="M2067 1349 c-135 -32 -220 -141 -220 -280 0 -111 62 -206 162 -253
64 -29 179 -28 237 2 93 48 148 126 160 224 22 185 -161 351 -339 307z m143
-101 c24 -13 58 -40 74 -61 28 -35 31 -46 31 -111 0 -60 -4 -78 -24 -108 -48
-70 -127 -100 -216 -84 -45 9 -103 59 -126 111 -75 165 100 335 261 253z"/>
<path d="M2449 1243 c211 -472 204 -459 217 -427 7 16 62 139 123 273 61 134
111 248 111 253 0 4 -19 8 -42 8 l-43 0 -79 -181 c-43 -99 -82 -177 -87 -172
-4 4 -41 85 -82 178 l-74 170 -46 3 -46 3 48 -108z"/>
<path d="M2960 1075 l0 -275 45 0 45 0 0 275 0 275 -45 0 -45 0 0 -275z"/>
<path d="M3150 1075 l0 -275 165 0 165 0 0 40 0 40 -120 0 -120 0 0 80 0 80
100 0 100 0 0 40 0 40 -100 0 -100 0 0 75 0 75 120 0 120 0 0 40 0 40 -165 0
-165 0 0 -275z"/>
<path d="M3570 1075 l0 -275 165 0 165 0 0 40 0 40 -120 0 -120 0 0 235 0 235
-45 0 -45 0 0 -275z"/>
<path d="M3960 1075 l0 -275 45 0 45 0 0 275 0 275 -45 0 -45 0 0 -275z"/>
<path d="M4245 1336 c-41 -18 -83 -69 -91 -110 -13 -72 21 -114 140 -172 50
-24 99 -54 109 -65 44 -53 0 -109 -87 -109 -51 0 -116 28 -116 50 0 16 -13 12
-45 -14 -29 -23 -29 -24 -12 -50 22 -34 86 -66 145 -73 171 -20 283 145 172
253 -17 16 -72 49 -123 74 -84 41 -92 48 -95 76 -7 68 97 100 153 48 27 -25
30 -26 54 -11 14 8 27 20 29 25 5 16 -40 64 -74 78 -42 18 -119 17 -159 0z"/>
<path d="M4550 1310 l0 -40 70 0 70 0 0 -235 0 -235 45 0 45 0 0 235 0 235 70
0 70 0 0 40 0 40 -185 0 -185 0 0 -40z"/>
<path d="M476 1300 c-38 -12 -85 -57 -102 -97 -17 -39 -19 -258 -3 -300 14
-38 57 -83 96 -99 44 -19 261 -19 306 0 18 7 45 28 60 45 27 32 51 97 41 113
-9 15 16 8 66 -17 107 -54 160 -20 160 105 0 125 -53 159 -160 105 -27 -14
-53 -25 -57 -25 -4 0 -9 13 -10 30 -3 43 -28 85 -70 117 -35 27 -41 28 -167
30 -72 1 -144 -2 -160 -7z"/>
</g>
</svg>
