<?xml version="1.0" encoding="UTF-8"?>
<svg xmlns="http://www.w3.org/2000/svg" xmlns:xlink="http://www.w3.org/1999/xlink" viewBox="0 0 64 64" width="64px" height="64px">
<g id="surface161098745">
<path style=" stroke:none;fill-rule:nonzero;fill:rgb(84.313726%,12.941177%,12.941177%);fill-opacity:1;" d="M 28.890625 8 C 25.210938 8 22.222656 10.992188 22.222656 14.667969 L 22.222656 16 L 15.109375 16 C 13.148438 16 11.554688 17.59375 11.554688 19.554688 C 11.554688 21.519531 13.148438 23.109375 15.109375 23.109375 L 15.316406 23.109375 L 16.597656 46.148438 C 16.820312 50.175781 20.160156 53.332031 24.195312 53.332031 L 39.804688 53.332031 C 43.839844 53.332031 47.179688 50.175781 47.402344 46.148438 L 48.683594 23.109375 L 48.890625 23.109375 C 50.851562 23.109375 52.445312 21.519531 52.445312 19.554688 C 52.445312 17.59375 50.851562 16 48.890625 16 L 41.777344 16 L 41.777344 14.667969 C 41.777344 10.992188 38.789062 8 35.109375 8 Z M 28.890625 14.222656 L 35.109375 14.222656 C 35.355469 14.222656 35.554688 14.421875 35.554688 14.667969 L 35.554688 16 L 28.445312 16 L 28.445312 14.667969 C 28.445312 14.421875 28.644531 14.222656 28.890625 14.222656 Z M 32 24.890625 C 32.980469 24.890625 33.777344 25.683594 33.777344 26.667969 L 33.777344 42.597656 C 33.777344 43.582031 32.980469 44.375 32 44.375 C 31.019531 44.375 30.222656 43.582031 30.222656 42.597656 L 30.222656 26.667969 C 30.222656 25.683594 31.019531 24.890625 32 24.890625 Z M 24.347656 24.890625 C 25.296875 24.871094 26.152344 25.625 26.1875 26.605469 L 26.742188 42.605469 C 26.777344 43.585938 26.007812 44.40625 25.027344 44.441406 C 25.003906 44.445312 24.984375 44.445312 24.964844 44.445312 C 24.011719 44.445312 23.222656 43.6875 23.1875 42.726562 L 22.632812 26.726562 C 22.601562 25.746094 23.367188 24.925781 24.347656 24.890625 Z M 39.652344 24.890625 C 40.632812 24.925781 41.398438 25.746094 41.367188 26.726562 L 40.8125 42.726562 C 40.777344 43.6875 39.988281 44.445312 39.035156 44.445312 C 39.015625 44.445312 38.996094 44.445312 38.972656 44.441406 C 37.992188 44.410156 37.222656 43.585938 37.257812 42.605469 L 37.8125 26.605469 C 37.847656 25.625 38.683594 24.871094 39.652344 24.890625 Z M 39.652344 24.890625 "/>
</g>
</svg>
